<?xml version="1.0" standalone="no"?>
<!DOCTYPE svg PUBLIC "-//W3C//DTD SVG 20010904//EN"
 "http://www.w3.org/TR/2001/REC-SVG-20010904/DTD/svg10.dtd">
<svg version="1.0" xmlns="http://www.w3.org/2000/svg"
 width="818.000000pt" height="818.000000pt" viewBox="0 0 818.000000 818.000000"
 preserveAspectRatio="xMidYMid meet">
<metadata>
Created by potrace 1.11, written by Peter Selinger 2001-2013
</metadata>
<g transform="translate(0.000000,818.000000) scale(0.100000,-0.100000)"
fill="#000000" stroke="none">
<path d="M1295 8175 c-5 -2 -46 -11 -90 -21 -96 -21 -225 -71 -225 -87 0 -5
-4 -6 -9 -2 -5 3 -15 0 -23 -7 -7 -7 -38 -30 -69 -51 -135 -91 -269 -262 -323
-412 -23 -66 -28 -80 -25 -80 1 0 -2 -9 -8 -20 -6 -11 -15 -45 -20 -75 -4 -30
-8 -1533 -8 -3340 l0 -3285 22 -71 c41 -129 88 -216 177 -326 51 -62 82 -92
189 -183 92 -79 275 -167 397 -191 51 -11 2020 -11 2020 0 0 5 6 4 13 -1 15
-11 329 -9 347 2 7 5 11 4 7 -1 -3 -5 10 -9 29 -9 19 0 34 4 34 8 0 5 5 5 11
1 15 -9 353 -9 368 0 6 4 11 4 11 -1 0 -4 43 -8 95 -8 52 0 95 4 95 8 0 5 5 5
11 1 13 -8 226 -7 240 1 5 4 9 3 9 -2 0 -4 28 -7 62 -5 35 2 79 2 98 1 19 0
40 -1 45 0 71 4 125 5 125 1 0 -3 29 -3 65 0 36 3 65 2 65 -3 0 -4 4 -6 9 -2
9 5 303 9 326 5 6 -1 14 -2 19 -1 6 1 182 2 351 1 40 -1 340 -1 350 0 193 5
455 3 455 -3 0 -5 5 -5 11 -2 5 4 94 9 197 11 165 3 231 7 240 14 2 3 2 3 52
14 51 12 152 59 206 97 56 38 147 127 189 184 17 22 34 43 40 47 5 4 6 8 1 8
-5 0 -2 8 6 18 66 78 174 369 192 521 l5 40 -27 -12 c-15 -6 -29 -14 -32 -18
-13 -16 -369 -183 -415 -194 -5 -2 -34 -12 -62 -24 -29 -11 -53 -18 -53 -15 0
4 -6 2 -12 -3 -12 -9 -43 -19 -93 -29 -11 -2 -31 -6 -45 -10 -73 -17 -271 -19
-1585 -17 -786 1 -1995 3 -2685 4 -781 2 -1266 6 -1285 12 -64 21 -142 97
-193 188 -30 54 -40 131 -27 199 2 8 16 39 31 68 31 61 87 111 160 144 l49 23
810 2 c446 2 1678 4 2740 6 1062 2 1948 7 1970 11 51 10 196 60 232 80 16 8
40 20 56 27 15 6 27 15 27 20 0 5 5 9 11 9 18 0 123 86 181 148 70 76 106 130
151 223 42 89 49 106 61 156 3 10 5 20 7 23 1 3 3 10 4 15 2 6 4 12 5 15 5 14
13 101 14 152 1 32 5 58 9 58 5 0 5 5 2 11 -11 16 -12 69 -3 69 5 0 4 8 -1 18
-6 11 -6 24 0 35 6 9 6 17 2 17 -4 0 -8 20 -8 45 0 25 4 45 8 45 4 0 3 8 -2
18 -6 11 -6 24 0 35 6 9 6 17 1 17 -9 0 -8 53 3 69 3 6 3 11 -2 11 -4 0 -8 11
-8 25 0 14 4 25 8 25 4 0 3 8 -2 18 -6 11 -6 24 0 35 6 9 6 17 2 17 -4 0 -8
11 -8 25 0 14 4 25 8 25 4 0 3 8 -2 18 -6 11 -6 24 0 35 6 9 6 17 1 17 -9 0
-8 53 3 69 3 6 3 11 -2 11 -4 0 -8 11 -8 25 0 14 4 25 8 25 4 0 3 8 -2 19 -6
10 -8 21 -4 24 8 9 7 293 -2 306 -3 6 -3 11 2 11 9 0 8 202 -1 225 -3 8 -2 15
2 15 8 0 7 203 -2 225 -3 8 -2 15 2 15 8 0 7 203 -2 225 -3 8 -2 15 2 15 8 0
7 203 -2 225 -3 8 -2 15 2 15 8 0 7 203 -2 225 -3 8 -2 15 2 15 8 0 7 203 -2
225 -3 8 -2 15 2 15 8 0 7 203 -2 225 -3 8 -2 15 2 15 8 0 7 203 -2 225 -3 8
-2 15 2 15 8 0 7 203 -2 225 -3 8 -2 15 2 15 8 0 7 132 -1 155 -4 8 -2 17 3
20 6 3 6 15 0 30 -6 15 -6 27 0 30 6 3 6 15 0 30 -6 15 -6 27 0 30 6 3 6 15 0
30 -6 15 -6 27 0 30 6 4 7 13 1 24 -5 9 -6 23 -1 31 4 7 4 24 0 36 -6 14 -5
26 0 29 6 3 6 15 0 30 -6 15 -6 27 0 30 6 3 6 15 0 30 -6 15 -6 27 0 30 6 4 7
13 1 24 -5 9 -6 23 -1 31 4 7 4 24 0 36 -6 14 -5 26 0 29 6 3 6 15 0 30 -6 15
-6 27 0 30 6 3 6 15 0 30 -6 15 -6 27 0 30 6 4 7 13 1 24 -5 9 -6 23 -1 31 4
7 4 24 0 36 -6 14 -5 26 0 29 6 3 6 15 0 30 -6 15 -6 27 0 30 6 3 6 15 0 30
-6 15 -6 27 0 30 6 4 7 13 1 24 -5 9 -6 23 -1 31 4 7 4 24 0 36 -6 14 -5 26 0
29 6 3 6 15 0 30 -6 15 -6 27 0 30 6 3 6 15 0 30 -6 15 -6 27 0 30 6 4 7 13 1
24 -5 9 -6 23 -1 31 4 7 4 24 0 36 -6 14 -5 26 0 29 6 3 6 15 0 30 -6 15 -6
27 0 30 6 3 6 15 0 30 -6 15 -6 27 0 30 6 4 7 13 1 24 -5 9 -6 23 -1 31 4 7 4
24 0 36 -6 14 -5 26 0 29 6 3 6 15 0 30 -6 17 -6 25 1 25 6 0 7 4 4 10 -3 5
-8 39 -10 75 -3 36 -7 78 -10 93 -4 15 -9 40 -12 57 -14 78 -100 263 -148 319
-14 16 -25 32 -25 36 0 12 -124 129 -184 174 -98 73 -270 147 -368 159 -15 1
-30 6 -34 10 -7 6 -5579 9 -5599 2z m415 -638 c0 -5 6 -5 12 0 17 10 156 11
185 1 12 -4 24 -4 27 0 5 9 289 8 304 -1 6 -4 13 -4 15 0 3 5 133 7 289 6 155
-2 291 -3 301 -3 9 0 64 0 122 0 58 0 111 0 118 0 6 0 84 1 172 3 88 1 166 -1
173 -6 6 -5 12 -6 12 -1 0 5 63 9 140 9 77 0 140 -4 140 -8 0 -5 6 -5 13 0 16
10 66 11 93 1 12 -4 25 -4 28 -1 9 9 297 9 303 0 2 -4 9 -4 15 0 17 10 651 10
666 0 6 -5 12 -6 12 -1 0 11 211 11 228 0 7 -4 12 -4 12 1 0 10 211 10 228 -1
7 -4 12 -4 12 1 0 10 211 10 228 -1 7 -4 12 -3 12 1 0 7 157 10 185 3 6 -1 12
-1 15 0 15 6 303 4 307 -3 2 -4 9 -4 15 -1 12 8 557 13 571 6 5 -2 28 -5 51
-7 93 -6 213 -90 257 -182 11 -23 21 -46 21 -50 0 -4 5 -17 10 -27 12 -21 15
-5004 3 -5066 -8 -46 -33 -97 -69 -145 -40 -52 -59 -67 -126 -102 l-55 -28
-740 -3 c-407 -1 -1622 -3 -2700 -5 -1078 -2 -1978 -7 -2000 -11 -22 -5 -64
-19 -93 -32 -30 -13 -57 -22 -61 -20 -8 5 -6 5339 3 5391 15 93 92 200 177
245 24 13 69 28 109 36 13 3 25 6 26 7 7 7 234 0 234 -6z"/>
<path d="M4057 6554 c-1 -1 -27 -4 -57 -7 -307 -32 -578 -210 -721 -473 -28
-53 -63 -139 -75 -186 -22 -92 -31 -167 -28 -244 3 -70 28 -213 43 -249 38
-90 57 -130 64 -133 4 -2 7 -8 7 -13 0 -21 83 -131 147 -195 70 -70 155 -130
260 -183 l62 -31 0 -635 -1 -636 -21 7 c-12 4 -39 18 -59 30 -21 13 -42 24
-48 24 -5 0 -10 5 -10 10 0 6 -5 10 -11 10 -17 0 -181 116 -225 158 -70 69
-111 116 -128 150 -9 17 -21 32 -26 32 -6 0 -10 6 -10 14 0 7 -11 33 -23 57
-13 24 -29 62 -36 84 -7 22 -15 47 -18 55 -14 35 -29 100 -25 105 3 3 43 5 88
5 69 0 85 3 92 18 15 27 4 44 -99 154 -53 57 -111 119 -129 138 -191 208 -285
300 -306 300 -12 0 -24 -4 -26 -9 -3 -8 -123 -138 -273 -296 -105 -111 -221
-238 -228 -251 -4 -7 -2 -22 5 -33 11 -18 25 -21 107 -23 l95 -3 13 -70 c27
-145 37 -185 71 -285 59 -174 149 -324 282 -473 115 -128 216 -217 330 -291
25 -16 57 -37 72 -48 26 -17 162 -87 238 -121 95 -43 271 -92 400 -112 155
-23 398 -24 515 -1 11 2 40 7 65 12 51 9 59 11 63 14 1 1 9 3 17 5 44 8 209
69 282 103 93 43 249 135 352 207 104 73 248 221 343 353 48 66 159 272 148
272 -2 0 4 19 14 43 17 40 63 212 76 287 3 19 8 44 10 55 2 11 4 28 4 38 1 15
12 17 96 17 84 0 95 2 105 20 14 27 12 31 -105 156 -55 59 -121 130 -147 158
-25 28 -84 90 -130 137 -46 48 -93 99 -105 113 -43 49 -38 53 -339 -270 -62
-65 -135 -144 -164 -174 -77 -82 -84 -94 -68 -119 11 -19 22 -21 100 -21 82 0
88 -1 88 -20 0 -38 -80 -266 -99 -280 -3 -3 -15 -23 -26 -45 -27 -53 -165
-192 -243 -244 -65 -44 -263 -151 -278 -151 -7 0 -10 912 -5 1235 1 28 7 33
67 59 98 43 210 120 284 195 90 91 118 132 171 241 12 25 25 52 29 60 12 25
38 122 46 170 16 102 9 263 -16 345 -1 6 -4 15 -6 20 -50 169 -119 283 -248
408 -38 37 -75 67 -82 67 -7 0 -14 4 -16 8 -11 28 -190 114 -298 143 -25 7
-47 13 -50 14 -29 8 -236 24 -243 19z m133 -636 c104 -29 182 -137 183 -251 1
-70 -16 -113 -66 -169 -129 -147 -382 -107 -459 71 -54 126 5 273 135 335 43
20 64 24 122 22 39 -2 77 -5 85 -8z"/>
</g>
</svg>
